<?xml version="1.0" standalone="no"?>
<!DOCTYPE svg PUBLIC "-//W3C//DTD SVG 20010904//EN"
 "http://www.w3.org/TR/2001/REC-SVG-20010904/DTD/svg10.dtd">
<svg version="1.0" xmlns="http://www.w3.org/2000/svg"
 width="400.000000pt" height="400.000000pt" viewBox="0 0 400.000000 400.000000"
 preserveAspectRatio="xMidYMid meet">
<metadata>
Created by potrace 1.14, written by Peter Selinger 2001-2017
</metadata>
<g transform="translate(0.000000,400.000000) scale(0.100000,-0.100000)"
fill="#000000" stroke="none">
<path d="M1856 3280 c-38 -5 -103 -16 -145 -25 -417 -93 -778 -414 -925 -823
-95 -264 -95 -600 0 -864 129 -358 424 -653 782 -782 264 -95 600 -95 864 0
358 129 653 424 782 782 95 264 95 600 0 864 -129 358 -424 653 -782 782 -160
57 -414 87 -576 66z m346 -135 c476 -83 860 -467 943 -943 19 -108 19 -296 0
-404 -83 -476 -467 -860 -944 -943 -142 -25 -131 -34 -131 98 l0 113 283 144
c155 79 285 148 289 154 4 6 8 43 8 83 0 64 2 72 21 78 27 9 59 63 59 100 0
75 -80 137 -150 116 -99 -30 -120 -161 -35 -217 21 -14 25 -24 25 -68 l0 -51
-245 -123 c-135 -67 -247 -122 -250 -122 -3 0 -5 46 -5 103 l0 102 98 44 c158
72 142 42 142 255 l0 184 213 119 212 120 3 57 c3 53 7 61 43 95 35 34 39 43
39 85 0 41 -5 53 -34 82 -28 28 -42 34 -75 34 -57 0 -95 -22 -116 -66 -23 -50
-13 -99 31 -140 26 -25 34 -41 34 -67 l0 -35 -209 -117 c-148 -83 -211 -124
-215 -139 -3 -11 -6 -96 -6 -187 l0 -166 -27 -13 c-16 -7 -52 -23 -80 -36
l-53 -24 1 378 0 377 180 87 179 88 0 70 c0 70 1 71 40 109 34 32 40 44 40 80
0 57 -22 95 -66 116 -128 61 -230 -113 -119 -202 31 -25 35 -33 35 -76 l0 -47
-142 -71 -143 -70 -3 218 c-2 163 1 219 10 222 23 8 58 54 64 87 9 48 -21 104
-69 128 -105 51 -209 -70 -147 -171 10 -17 28 -37 39 -43 21 -10 21 -18 21
-360 0 -193 -3 -350 -6 -350 -3 0 -50 23 -105 51 l-99 51 0 171 0 172 -74 57
c-73 56 -74 58 -69 95 6 49 -28 102 -79 121 -48 19 -83 9 -125 -33 -80 -80
-11 -206 106 -192 43 5 50 3 109 -44 l62 -49 0 -169 c0 -147 2 -170 18 -183 9
-8 72 -43 140 -78 l122 -63 0 -128 c0 -71 -3 -129 -7 -129 -5 0 -104 44 -221
97 l-214 98 6 87 c6 102 10 96 -121 162 -81 40 -93 49 -93 72 0 40 -30 93 -61
109 -119 62 -236 -79 -148 -179 37 -42 81 -54 130 -33 33 13 37 12 128 -32
l93 -46 -5 -86 c-3 -47 -2 -90 1 -96 4 -6 120 -63 257 -126 l250 -115 3 -372
2 -371 -62 3 -63 3 -5 248 -5 249 -160 73 c-143 66 -161 77 -166 102 -8 40
-26 69 -51 87 -29 21 -107 20 -136 0 -29 -20 -52 -65 -52 -101 0 -35 31 -88
61 -104 32 -17 94 -15 124 5 24 16 29 15 170 -50 l145 -67 0 -215 0 -215 -37
6 c-21 4 -67 16 -103 28 -410 133 -715 478 -795 900 -19 103 -19 301 0 411 82
473 464 857 937 943 100 18 307 18 410 0z"/>
</g>
</svg>
